<svg style="width: 58px;" xmlns="http://www.w3.org/2000/svg" viewBox="0 0 58.5 41.3">
                <path d="M42.6,44.5a1.32,1.32,0,0,1,1.3,1.3v3.7c0,.7.7,1.3,0,1.3H12.8a1.32,1.32,0,0,1-1.3-1.3V45.8a1.32,1.32,0,0,1,1.3-1.3Z" transform="translate(-0.7 -9.5)" fill="#067eff"></path>
                <path d="M59.2,35.8a15,15,0,1,1-15-15A15,15,0,0,1,59.2,35.8Z" transform="translate(-0.7 -9.5)" fill="#067eff"></path>
                <path d="M41.3,23.6A14.1,14.1,0,1,1,27.2,9.5,14.08,14.08,0,0,1,41.3,23.6Z" transform="translate(-0.7 -9.5)" fill="#86c0ff"></path>
                <path d="M13.3,28.3h.5l.4.1.4.1.4.1.4.1.4.1.4.1.4.2.4.2.4.2.4.2.4.2.4.2.4.2.3.3.3.3.3.3.3.3.3.3.3.3.3.3.3.3.2.4.2.4.2.4.2.4.2.4.2.4.2.4.1.4.1.4.1.4.1.4.1.4.1.4v3l-.1.4-.1.4-.1.4-.1.4-.1.4-.1.4-.2.4-.2.4-.2.4V45l-.2.4-.2.4-.2.4-.3.3-.3.3-.3.3-.3.3-.3.3-.4.3-.3.3-.3.3-.4.2-.4.2-.3.3-.4.2-.4.2-.4.2-.4.1-.4.2-.4.1-.4.1-.4.1-.4.1-.4.1H11l-.4-.1-.4-.1-.4-.1-.4-.1L9,50.2,8.4,50,8,49.9l-.4-.2-.4-.2-.4-.2-.4-.2L6,48.9l-.4-.2-.3-.3L5.1,48l-.3-.3-.3-.3-.3-.3-.3-.3-.3-.3-.3-.3-.2-.4-.2-.4L2.6,45l-.2-.4-.2-.4L2,43.9l-.2-.4-.1-.4-.1-.4-.1-.4-.1-.4-.1-.4-.1-.4v-3l.1-.4.1-.4.1-.4.1-.4.1-.4.1-.4.2-.6.2-.4.2.1.2.1.2.1.2.1.2.1.2.1.2.1H5.2l.2-.1.2-.1.2-.1.8-.1.2-.1.2-.1.2-.1.2-.1.2-.1.2-.1.2-.2.2-.2.2-.2.1-.2.1-.2.1-.2.1-.2.1-.2.1-.2.1-.2.1-.2.1-.2.1-.2V30.2L9.3,30l-.1-.2-.1-.2L9,28.8l.3-.1.4-.1.4-.1.4-.1.4-.1Z" transform="translate(-0.7 -9.5)" fill="#bcdaf9"></path>
                <path d="M51.3,36a7,7,0,1,1-7-7A7,7,0,0,1,51.3,36Z" transform="translate(-0.7 -9.5)" fill="#262d3b"></path>
                <path d="M7.3,29.7A3.33,3.33,0,0,1,4,33a3.3,3.3,0,0,1,0-6.6A3.33,3.33,0,0,1,7.3,29.7Z" transform="translate(-0.7 -9.5)" fill="#067eff"></path>
                <path d="M17.9,39.3a5.23,5.23,0,0,1-5.2,5.2,5.2,5.2,0,0,1,0-10.4A5.23,5.23,0,0,1,17.9,39.3Z" transform="translate(-0.7 -9.5)" fill="#262d3b"></path>
                <path d="M34.2,24.1a7,7,0,0,1-14,0,7,7,0,0,1,14,0Z" transform="translate(-0.7 -9.5)" fill="#262d3b"></path>
                <path d="M29.3,22a1.88,1.88,0,0,1,.1,2.6C26.1,28,17.8,36.8,14.6,40.2a1.88,1.88,0,0,1-2.6.1h0a1.88,1.88,0,0,1-.1-2.6c3.2-3.4,11.5-12.2,14.8-15.6a1.78,1.78,0,0,1,2.6-.1Z" transform="translate(-0.7 -9.5)" fill="#262d3b"></path>
              </svg>