<svg xmlns="http://www.w3.org/2000/svg" viewBox="0 0 147.94 174.91">
  <path d="M11.46 56.86c7.73-22.38 34.25-45.1 69.48-41.83 28.44 2.64 51.17 24.69 55.9 42.8-18-16.17-39.32-22.16-62.7-22.21s-44.53 5.84-62.68 21.24zM136.66 109.2c-3.6 16.36-25.15 38.62-52.56 42.64-34.89 5.13-64.49-17.46-73.43-42.73 7.72 6.59 15.11 11.61 23.5 15.05a104.65 104.65 0 0025.89 6.76 102.64 102.64 0 0027.35.06 102.75 102.75 0 0025.92-6.6 71.81 71.81 0 0023.33-15.18z" fill="#f2792a"/>
  <path d="M9.84 161.65c-.5-7.48 5.27-13.3 13.3-13.52 6.57-.21 12.8 6.71 12.8 13.42a13.42 13.42 0 01-13.65 13.37c-6.99-.12-12.46-5.94-12.45-13.27z" fill="#9f9f9f"/>
  <path d="M124.68 20.98a10.38 10.38 0 01-10.67-10.18A10.79 10.79 0 01124.28.01a10.63 10.63 0 0110.66 10.34 10.39 10.39 0 01-10.26 10.63z" fill="#79797a"/>
  <path d="M50.04 74.64c-.79 0-.58.06-.5 0a9.47 9.47 0 0114.89 2.13c3.39 6.36 1.49 15-4.22 18-4 2.08-7.62 1.06-11.34-1.75v9.4c0 1.63-.48 2.47-2.26 2.4s-1.85-1.05-1.85-2.31v-12c-.07-4.8-.23-9.6-.3-14.41 0-1.39-.73-3.4 1.38-3.62 1.1-.1 2.29 1.13 4.2 2.16zm-1.17 10.2a11.8 11.8 0 00.17 2.66 5.61 5.61 0 004.18 4.42c2.31.57 4.6.51 6.45-1.39 3-3.08 3.07-10.27-.06-13.25a6.84 6.84 0 00-4-1.63c-4.27-.26-6.67 2.88-6.74 9.19zM68.94 72.72c3.32-1.15 4.8-.23 5.71 2.58 1.39 4.36 3.16 8.6 5.24 14.14 1.44-4.13 2.5-7.14 3.55-10.16a35.72 35.72 0 001.44-4.23c.62-2.93 2.39-3.16 5.25-2.3-3.56 9.07-6.19 18.33-11.11 26.6-1.29 2.16-3.66 3.73-5.7 5.35-.44.34-1.9 0-2.43-.52-1-1-.74-2 .56-2.79A17.43 17.43 0 0074.6 99c2.33-2.27 3.17-4.69 1.66-8-2.69-5.89-4.86-11.97-7.32-18.28zM114.83 84.85c1.39 7.16 3.55 8.14 13.64 6.81.55 1.23 1 2.37-.65 3.24-5.74 3-13.65.38-16.33-5.17-2.45-5.08-.39-15 6.36-17.16a9.78 9.78 0 0112.79 10.68c-.25 1.66-1.37 1.6-2.55 1.6zm11.86-3.5c-1.14-4.91-2.8-6.61-5.88-6.42s-4.93 2.12-5.64 6.42zM31.99 93.33c-2.59 2-5.92 3.73-9.89 1.63s-4.26-6-4.25-9.89V74.61c0-1.3.24-2.24 1.86-2.31 1.79-.08 2.3.76 2.27 2.39 0 3.32-.07 6.65 0 10 .1 4.84 1.78 7.28 4.9 7.32 3.77.06 5.82-2.5 5.94-7.59.08-3.32 0-6.64 0-10 0-1.31.29-2.2 1.9-2.27 1.84-.09 2.24.85 2.23 2.42 0 5.82 0 11.63-.09 17.45a12.58 12.58 0 01-1.08 3.37zM12.18 31.92a7.42 7.42 0 01-7.32-7.76 7 7 0 017.18-7.26 7.6 7.6 0 017.76 7.39 7.74 7.74 0 01-7.62 7.63zM100.79 66.16l.54 5.91a17.53 17.53 0 013.62.29c.75.22 1.77.92 1.92 1.58.36 1.56-.8 1.91-2.14 1.85h-3.57c0 4.41-.13 8.66.06 12.9.09 1.86.9 3.51 3.41 3.44.7 0 1.43.86 2.15 1.32-.7.76-1.28 2-2.12 2.2-4.12 1-7.39-1.58-7.66-6.2-.21-3.48-.08-7 0-10.49 0-1.71.22-3.4-2.36-3.31-.41 0-1.25-.86-1.19-1.22.11-.7.66-1.86 1.11-1.9 2.24-.2 2.65-1.47 2.47-3.35-.31-2.63 1.47-2.91 3.76-3.02zM10.06 85.92c0 3.31.15 6.64 0 9.94-.25 4.52-2.77 7.71-6.81 8.68a3.37 3.37 0 01-2.9-.69c-.83-1.17.06-2.24 1.36-2.55 3.8-.88 4.19-3.86 4.23-6.93.09-6.46 0-12.93.12-19.39a3.52 3.52 0 011.3-2.67c1.51-.8 2.69.17 2.74 2.18.09 3.81 0 7.62 0 11.43zM136.48 86.29c0-4 .05-7.92 0-11.88 0-1.88 1.55-2.82 2.43-1.95 2.13 2.09 3.66 1.11 5.58 0 1.07-.61 2.66-1.24 3.26.56.51 1.56.11 2.69-2 3.06-3.43.62-4.88 3.13-4.9 6.52s-.07 6.63 0 9.95c0 1.54-.29 2.54-2.14 2.56-1.7 0-2.41-.66-2.36-2.35.06-2.16 0-4.31 0-6.47z" fill="#5a5a5a"/>
</svg>