<?xml version="1.0" encoding="utf-8"?>
<!-- Generator: Adobe Illustrator 24.0.1, SVG Export Plug-In . SVG Version: 6.00 Build 0)  -->
<svg version="1.1" id="Layer_1" xmlns="http://www.w3.org/2000/svg" xmlns:xlink="http://www.w3.org/1999/xlink" x="0px" y="0px"
	 viewBox="0 0 256 256" style="enable-background:new 0 0 40 40;" xml:space="preserve">
<style type="text/css">
	.st0{fill:#1A1918;}
	.st1{fill:#FFFFFF;}
</style>
<g>
	<g>
		<path class="st0" d="M255.8,128c0,70.5-57.1,127.6-127.6,127.6C57.8,255.6,0.7,198.5,0.7,128C0.7,57.6,57.8,0.4,128.2,0.4
			C198.7,0.4,255.8,57.6,255.8,128"/>
		<path class="st1" d="M130.4,78.4l33,81.5l-49.9-39.3L130.4,78.4z M189,178.6L138.3,56.4c-1.4-3.5-4.3-5.4-7.9-5.4
			c-3.5,0-6.6,1.9-8.1,5.4l-55.7,134h19.1l22.1-55.3l65.8,53.2c2.6,2.1,4.6,3.1,7,3.1c5,0,9.3-3.7,9.3-9.1
			C189.9,181.5,189.6,180.1,189,178.6L189,178.6z"/>
	</g>
</g>
</svg>
